STARTFONT 2.1
COMMENT
COMMENT Converted from OpenType font "CircularStd-Book.otf" by "otf2bdf 3.0".
COMMENT
FONT -FreeType-Circular Std Book-Medium-R-Normal--21-150-100-100-P-104-ISO10646-1
SIZE 15 100 100
FONTBOUNDINGBOX 32 24 -1 -5
STARTPROPERTIES 19
FOUNDRY "FreeType"
FAMILY_NAME "Circular Std Book"
WEIGHT_NAME "Medium"
SLANT "R"
SETWIDTH_NAME "Normal"
ADD_STYLE_NAME ""
PIXEL_SIZE 21
POINT_SIZE 150
RESOLUTION_X 100
RESOLUTION_Y 100
SPACING "P"
AVERAGE_WIDTH 104
CHARSET_REGISTRY "ISO10646"
CHARSET_ENCODING "1"
FONT_ASCENT 20
FONT_DESCENT 5
COPYRIGHT "Generated in 2013 by FontLab Studio. Copyright info pending."
_OTF_FONTFILE "CircularStd-Book.otf"
_OTF_PSNAME "CircularStd-Book"
ENDPROPERTIES
CHARS 332
STARTCHAR 0000
ENCODING 0
SWIDTH 0 0
DWIDTH 0 0
BBX 0 0 0 0
BITMAP
ENDCHAR
STARTCHAR 000D
ENCODING 13
SWIDTH 240 0
DWIDTH 5 0
BBX 0 0 0 0
BITMAP
ENDCHAR
STARTCHAR 0020
ENCODING 32
SWIDTH 240 0
DWIDTH 5 0
BBX 0 0 0 0
BITMAP
ENDCHAR
STARTCHAR 0021
ENCODING 33
SWIDTH 288 0
DWIDTH 6 0
BBX 3 15 2 0
BITMAP
C0
C0
C0
C0
C0
C0
C0
C0
C0
C0
40
00
C0
E0
C0
ENDCHAR
STARTCHAR 0022
ENCODING 34
SWIDTH 384 0
DWIDTH 8 0
BBX 6 6 1 8
BITMAP
CC
DC
CC
CC
C8
48
ENDCHAR
STARTCHAR 0023
ENCODING 35
SWIDTH 720 0
DWIDTH 15 0
BBX 13 14 1 0
BITMAP
0460
0460
0C60
0C60
7FF8
7FF8
08C0
18C0
18C0
FFF0
FFF0
3180
3180
3100
ENDCHAR
STARTCHAR 0024
ENCODING 36
SWIDTH 576 0
DWIDTH 12 0
BBX 10 18 1 -2
BITMAP
0400
0400
1F00
3F80
65C0
64C0
6400
7400
3F00
1F80
05C0
44C0
C4C0
64C0
7F80
1F00
0400
0400
ENDCHAR
STARTCHAR 0025
ENCODING 37
SWIDTH 816 0
DWIDTH 17 0
BBX 15 14 1 0
BITMAP
3818
7C30
C630
C660
C6C0
7CC0
3180
0318
037C
0666
0CC6
08C6
187E
3038
ENDCHAR
STARTCHAR 0026
ENCODING 38
SWIDTH 720 0
DWIDTH 15 0
BBX 13 15 1 0
BITMAP
1E00
3F00
7180
6180
7180
3300
1E00
1C10
3630
6330
61E0
E0C0
63E0
7F70
3E38
ENDCHAR
STARTCHAR 0027
ENCODING 39
SWIDTH 192 0
DWIDTH 4 0
BBX 2 6 1 8
BITMAP
C0
C0
C0
C0
C0
40
ENDCHAR
STARTCHAR 0028
ENCODING 40
SWIDTH 288 0
DWIDTH 6 0
BBX 5 20 1 -3
BITMAP
08
18
30
30
60
60
40
C0
C0
C0
C0
C0
C0
40
60
60
30
30
18
08
ENDCHAR
STARTCHAR 0029
ENCODING 41
SWIDTH 288 0
DWIDTH 6 0
BBX 5 20 0 -3
BITMAP
40
C0
60
30
30
10
18
18
18
18
18
18
18
18
10
30
30
60
C0
40
ENDCHAR
STARTCHAR 002A
ENCODING 42
SWIDTH 432 0
DWIDTH 9 0
BBX 7 8 1 7
BITMAP
10
10
92
FE
38
38
6C
44
ENDCHAR
STARTCHAR 002B
ENCODING 43
SWIDTH 576 0
DWIDTH 12 0
BBX 10 10 1 1
BITMAP
0C00
0C00
0C00
0C00
FFC0
FFC0
0C00
0C00
0C00
0C00
ENDCHAR
STARTCHAR 002C
ENCODING 44
SWIDTH 288 0
DWIDTH 6 0
BBX 4 6 1 -3
BITMAP
60
F0
70
20
20
40
ENDCHAR
STARTCHAR 002D
ENCODING 45
SWIDTH 384 0
DWIDTH 8 0
BBX 6 2 1 5
BITMAP
FC
FC
ENDCHAR
STARTCHAR 002E
ENCODING 46
SWIDTH 288 0
DWIDTH 6 0
BBX 3 3 1 0
BITMAP
60
E0
60
ENDCHAR
STARTCHAR 002F
ENCODING 47
SWIDTH 432 0
DWIDTH 9 0
BBX 9 15 0 0
BITMAP
0180
0300
0300
0600
0600
0400
0C00
0800
1800
1800
3000
3000
6000
6000
C000
ENDCHAR
STARTCHAR 0030
ENCODING 48
SWIDTH 624 0
DWIDTH 13 0
BBX 11 14 1 0
BITMAP
1F00
3F80
61C0
60C0
C0C0
C060
C060
C060
C060
C0C0
60C0
61C0
3F80
1F00
ENDCHAR
STARTCHAR 0031
ENCODING 49
SWIDTH 336 0
DWIDTH 7 0
BBX 5 14 1 0
BITMAP
18
38
F8
F8
18
18
18
18
18
18
18
18
18
18
ENDCHAR
STARTCHAR 0032
ENCODING 50
SWIDTH 528 0
DWIDTH 11 0
BBX 9 14 1 0
BITMAP
3E00
7F00
E380
C180
C180
0180
0300
0700
1C00
3800
6000
C000
FF80
FF80
ENDCHAR
STARTCHAR 0033
ENCODING 51
SWIDTH 576 0
DWIDTH 12 0
BBX 10 14 1 0
BITMAP
FF80
FF80
0380
0700
0C00
1C00
1F00
0180
01C0
C0C0
C1C0
E180
7F80
3E00
ENDCHAR
STARTCHAR 0034
ENCODING 52
SWIDTH 576 0
DWIDTH 12 0
BBX 11 14 1 0
BITMAP
0700
0F00
0F00
1B00
3B00
3300
6300
E300
C300
FFE0
FFE0
0300
0300
0300
ENDCHAR
STARTCHAR 0035
ENCODING 53
SWIDTH 528 0
DWIDTH 11 0
BBX 10 14 1 0
BITMAP
3F80
3F80
6000
6000
6000
5E00
FF80
2180
01C0
00C0
C1C0
E180
7F00
3E00
ENDCHAR
STARTCHAR 0036
ENCODING 54
SWIDTH 576 0
DWIDTH 12 0
BBX 10 14 1 0
BITMAP
0F80
1FC0
3000
6000
6000
CF00
FF80
E1C0
E0C0
C0C0
E0C0
61C0
3F80
1F00
ENDCHAR
STARTCHAR 0037
ENCODING 55
SWIDTH 480 0
DWIDTH 10 0
BBX 10 14 0 0
BITMAP
FFC0
FFC0
0180
0300
0700
0600
0C00
0C00
1800
1800
1800
3800
3000
3000
ENDCHAR
STARTCHAR 0038
ENCODING 56
SWIDTH 576 0
DWIDTH 12 0
BBX 10 14 1 0
BITMAP
3E00
7F80
6180
C180
C180
6380
3F00
7F00
E180
C0C0
C0C0
E180
7F80
3E00
ENDCHAR
STARTCHAR 0039
ENCODING 57
SWIDTH 576 0
DWIDTH 12 0
BBX 10 14 1 0
BITMAP
1E00
7F00
E180
C0C0
C0C0
C0C0
E1C0
7FC0
3EC0
00C0
0180
0380
FF00
7C00
ENDCHAR
STARTCHAR 003A
ENCODING 58
SWIDTH 288 0
DWIDTH 6 0
BBX 2 10 2 0
BITMAP
C0
C0
C0
00
00
00
00
C0
C0
C0
ENDCHAR
STARTCHAR 003B
ENCODING 59
SWIDTH 288 0
DWIDTH 6 0
BBX 3 13 2 -3
BITMAP
C0
C0
C0
00
00
00
00
00
C0
E0
60
40
C0
ENDCHAR
STARTCHAR 003C
ENCODING 60
SWIDTH 480 0
DWIDTH 10 0
BBX 8 10 1 1
BITMAP
01
07
1E
78
E0
E0
78
1E
07
01
ENDCHAR
STARTCHAR 003D
ENCODING 61
SWIDTH 576 0
DWIDTH 12 0
BBX 10 6 1 3
BITMAP
FFC0
FFC0
0000
0000
FFC0
FFC0
ENDCHAR
STARTCHAR 003E
ENCODING 62
SWIDTH 480 0
DWIDTH 10 0
BBX 8 10 1 1
BITMAP
80
E0
78
1E
07
07
1E
78
E0
80
ENDCHAR
STARTCHAR 003F
ENCODING 63
SWIDTH 528 0
DWIDTH 11 0
BBX 9 15 1 0
BITMAP
3E00
7F00
E380
C180
C180
0380
0700
0E00
1C00
1800
1800
0000
1800
1800
1800
ENDCHAR
STARTCHAR 0040
ENCODING 64
SWIDTH 816 0
DWIDTH 17 0
BBX 15 16 1 -1
BITMAP
07E0
1FF8
300C
6006
63F6
C7F2
CC22
CC22
C822
CC66
CFEC
67B8
6000
3808
1FF8
07E0
ENDCHAR
STARTCHAR 0041
ENCODING 65
SWIDTH 720 0
DWIDTH 15 0
BBX 14 15 0 0
BITMAP
0380
0780
0780
06C0
0CC0
0CE0
0C60
1860
1830
3FF0
3FF8
3018
6018
600C
E00C
ENDCHAR
STARTCHAR 0042
ENCODING 66
SWIDTH 624 0
DWIDTH 13 0
BBX 10 15 2 0
BITMAP
FE00
FF00
C380
C180
C180
C180
FF00
FF00
C180
C180
C0C0
C1C0
C180
FF80
FE00
ENDCHAR
STARTCHAR 0043
ENCODING 67
SWIDTH 768 0
DWIDTH 16 0
BBX 14 15 1 0
BITMAP
07C0
1FF0
3838
6018
E00C
C000
C000
C000
C000
C000
E00C
6018
3838
1FF0
07C0
ENDCHAR
STARTCHAR 0044
ENCODING 68
SWIDTH 720 0
DWIDTH 15 0
BBX 12 15 2 0
BITMAP
FF00
FF80
C0C0
C060
C070
C030
C030
C030
C030
C030
C070
C060
C0C0
FF80
FF00
ENDCHAR
STARTCHAR 0045
ENCODING 69
SWIDTH 576 0
DWIDTH 12 0
BBX 9 15 2 0
BITMAP
FF80
FF80
C000
C000
C000
C000
C000
FF00
FF00
C000
C000
C000
C000
FF80
FF80
ENDCHAR
STARTCHAR 0046
ENCODING 70
SWIDTH 528 0
DWIDTH 11 0
BBX 9 15 2 0
BITMAP
FF80
FF80
C000
C000
C000
C000
C000
FF00
FF00
C000
C000
C000
C000
C000
C000
ENDCHAR
STARTCHAR 0047
ENCODING 71
SWIDTH 768 0
DWIDTH 16 0
BBX 14 15 1 0
BITMAP
07C0
1FF0
3838
6018
600C
C000
C000
C000
C1FC
C1FC
E00C
601C
303C
1FEC
0FCC
ENDCHAR
STARTCHAR 0048
ENCODING 72
SWIDTH 720 0
DWIDTH 15 0
BBX 11 15 2 0
BITMAP
C060
C060
C060
C060
C060
C060
FFE0
FFE0
C060
C060
C060
C060
C060
C060
C060
ENDCHAR
STARTCHAR 0049
ENCODING 73
SWIDTH 288 0
DWIDTH 6 0
BBX 2 15 2 0
BITMAP
C0
C0
C0
C0
C0
C0
C0
C0
C0
C0
C0
C0
C0
C0
C0
ENDCHAR
STARTCHAR 004A
ENCODING 74
SWIDTH 528 0
DWIDTH 11 0
BBX 9 15 0 0
BITMAP
0180
0180
0180
0180
0180
0180
0180
0180
0180
C180
C180
6180
6180
7F00
1E00
ENDCHAR
STARTCHAR 004B
ENCODING 75
SWIDTH 672 0
DWIDTH 14 0
BBX 11 15 2 0
BITMAP
C0E0
C1C0
C180
C300
C600
CC00
DC00
FC00
FE00
E600
C300
C380
C1C0
C0C0
C060
ENDCHAR
STARTCHAR 004C
ENCODING 76
SWIDTH 528 0
DWIDTH 11 0
BBX 9 15 2 0
BITMAP
C000
C000
C000
C000
C000
C000
C000
C000
C000
C000
C000
C000
C000
FF80
FF80
ENDCHAR
STARTCHAR 004D
ENCODING 77
SWIDTH 960 0
DWIDTH 20 0
BBX 16 15 2 0
BITMAP
E007
E00F
F00F
F00F
F81B
D81B
D833
CC33
CC73
C663
C663
C7C3
C3C3
C383
C183
ENDCHAR
STARTCHAR 004E
ENCODING 78
SWIDTH 768 0
DWIDTH 16 0
BBX 12 15 2 0
BITMAP
E030
F030
F030
F830
D830
CC30
CE30
C630
C330
C3B0
C1B0
C0F0
C0F0
C070
C030
ENDCHAR
STARTCHAR 004F
ENCODING 79
SWIDTH 816 0
DWIDTH 17 0
BBX 15 15 1 0
BITMAP
07C0
1FF0
3838
601C
E00C
C00E
C006
C006
C006
C00E
E00C
601C
3838
1FF0
07C0
ENDCHAR
STARTCHAR 0050
ENCODING 80
SWIDTH 576 0
DWIDTH 12 0
BBX 10 15 2 0
BITMAP
FE00
FF80
C180
C0C0
C0C0
C0C0
C180
FF80
FE00
C000
C000
C000
C000
C000
C000
ENDCHAR
STARTCHAR 0051
ENCODING 81
SWIDTH 816 0
DWIDTH 17 0
BBX 15 16 1 -1
BITMAP
07C0
1FF0
3838
601C
E00C
C00E
C006
C006
C006
C0CE
E0EC
607C
3838
1FF8
07CC
0004
ENDCHAR
STARTCHAR 0052
ENCODING 82
SWIDTH 624 0
DWIDTH 13 0
BBX 10 15 2 0
BITMAP
FF00
FF80
C1C0
C0C0
C0C0
C0C0
C180
FF80
FE00
C600
C600
C300
C300
C180
C1C0
ENDCHAR
STARTCHAR 0053
ENCODING 83
SWIDTH 576 0
DWIDTH 12 0
BBX 10 15 1 0
BITMAP
1F00
3F80
61C0
60C0
C000
6000
7C00
3F80
07C0
00C0
C0C0
C0C0
E0C0
7F80
1F00
ENDCHAR
STARTCHAR 0054
ENCODING 84
SWIDTH 576 0
DWIDTH 12 0
BBX 12 15 0 0
BITMAP
FFF0
FFF0
0600
0600
0600
0600
0600
0600
0600
0600
0600
0600
0600
0600
0600
ENDCHAR
STARTCHAR 0055
ENCODING 85
SWIDTH 672 0
DWIDTH 14 0
BBX 10 15 2 0
BITMAP
C0C0
C0C0
C0C0
C0C0
C0C0
C0C0
C0C0
C0C0
C0C0
C0C0
C0C0
C0C0
E1C0
7F80
3E00
ENDCHAR
STARTCHAR 0056
ENCODING 86
SWIDTH 672 0
DWIDTH 14 0
BBX 13 15 0 0
BITMAP
E018
6018
6038
3030
3030
3060
1860
1860
18C0
0CC0
0C80
0F80
0780
0700
0300
ENDCHAR
STARTCHAR 0057
ENCODING 87
SWIDTH 1008 0
DWIDTH 21 0
BBX 20 15 0 0
BITMAP
E07030
607030
607030
60D830
30D860
30D860
318C60
318CC0
198CC0
1B06C0
1B06C0
0F0780
0E0780
0E0380
0E0380
ENDCHAR
STARTCHAR 0058
ENCODING 88
SWIDTH 624 0
DWIDTH 13 0
BBX 11 15 1 0
BITMAP
C060
E0E0
60C0
3180
3B80
1B00
0E00
0E00
0E00
1B00
3B80
3180
60C0
E0E0
C060
ENDCHAR
STARTCHAR 0059
ENCODING 89
SWIDTH 624 0
DWIDTH 13 0
BBX 11 15 1 0
BITMAP
C060
E0E0
60C0
71C0
3180
1B00
1B00
0E00
0E00
0C00
0C00
0C00
0C00
0C00
0C00
ENDCHAR
STARTCHAR 005A
ENCODING 90
SWIDTH 624 0
DWIDTH 13 0
BBX 11 15 1 0
BITMAP
FFE0
FFE0
00E0
01C0
0180
0300
0700
0E00
1C00
1800
3000
7000
E000
FFE0
FFE0
ENDCHAR
STARTCHAR 005B
ENCODING 91
SWIDTH 288 0
DWIDTH 6 0
BBX 4 20 2 -3
BITMAP
F0
F0
C0
C0
C0
C0
C0
C0
C0
C0
C0
C0
C0
C0
C0
C0
C0
C0
F0
F0
ENDCHAR
STARTCHAR 005C
ENCODING 92
SWIDTH 432 0
DWIDTH 9 0
BBX 9 15 0 0
BITMAP
C000
6000
6000
3000
3000
1800
1800
0800
0C00
0C00
0600
0600
0300
0300
0180
ENDCHAR
STARTCHAR 005D
ENCODING 93
SWIDTH 288 0
DWIDTH 6 0
BBX 4 20 0 -3
BITMAP
F0
F0
30
30
30
30
30
30
30
30
30
30
30
30
30
30
30
30
F0
F0
ENDCHAR
STARTCHAR 005E
ENCODING 94
SWIDTH 528 0
DWIDTH 11 0
BBX 9 8 1 7
BITMAP
1C00
1C00
3600
3600
6300
6300
C180
C180
ENDCHAR
STARTCHAR 005F
ENCODING 95
SWIDTH 528 0
DWIDTH 11 0
BBX 11 2 0 -2
BITMAP
FFE0
FFE0
ENDCHAR
STARTCHAR 0060
ENCODING 96
SWIDTH 288 0
DWIDTH 6 0
BBX 4 3 1 11
BITMAP
C0
60
30
ENDCHAR
STARTCHAR 0061
ENCODING 97
SWIDTH 528 0
DWIDTH 11 0
BBX 9 10 1 0
BITMAP
3E00
7F00
E300
0180
1F80
7980
C380
C380
FF80
7980
ENDCHAR
STARTCHAR 0062
ENCODING 98
SWIDTH 576 0
DWIDTH 12 0
BBX 9 15 2 0
BITMAP
C000
C000
C000
C000
C000
DE00
FF00
E180
C180
C180
C080
C180
C180
F700
DE00
ENDCHAR
STARTCHAR 0063
ENCODING 99
SWIDTH 528 0
DWIDTH 11 0
BBX 9 10 1 0
BITMAP
1E00
7F00
E180
C100
C000
C000
C000
E180
7F00
1E00
ENDCHAR
STARTCHAR 0064
ENCODING 100
SWIDTH 576 0
DWIDTH 12 0
BBX 10 15 1 0
BITMAP
00C0
00C0
00C0
00C0
00C0
3EC0
7FC0
E1C0
C1C0
C0C0
C0C0
C1C0
E1C0
77C0
3CC0
ENDCHAR
STARTCHAR 0065
ENCODING 101
SWIDTH 528 0
DWIDTH 11 0
BBX 9 10 1 0
BITMAP
1E00
7F00
E180
C180
FF80
FF80
C000
E180
7F00
1E00
ENDCHAR
STARTCHAR 0066
ENCODING 102
SWIDTH 336 0
DWIDTH 7 0
BBX 7 15 0 0
BITMAP
0E
1E
38
30
30
FE
FE
30
30
30
30
30
30
30
30
ENDCHAR
STARTCHAR 0067
ENCODING 103
SWIDTH 576 0
DWIDTH 12 0
BBX 10 14 1 -4
BITMAP
3EC0
7FC0
E1C0
C1C0
C0C0
C0C0
C1C0
63C0
7EC0
1CC0
C180
C180
7F80
3E00
ENDCHAR
STARTCHAR 0068
ENCODING 104
SWIDTH 576 0
DWIDTH 12 0
BBX 8 15 2 0
BITMAP
C0
C0
C0
C0
C0
DE
FF
C3
C3
C3
C3
C3
C3
C3
C3
ENDCHAR
STARTCHAR 0069
ENCODING 105
SWIDTH 240 0
DWIDTH 5 0
BBX 3 15 1 0
BITMAP
60
E0
40
00
00
60
60
60
60
60
60
60
60
60
60
ENDCHAR
STARTCHAR 006A
ENCODING 106
SWIDTH 240 0
DWIDTH 5 0
BBX 4 19 0 -4
BITMAP
30
70
20
00
00
30
30
30
30
30
30
30
30
30
30
30
30
E0
C0
ENDCHAR
STARTCHAR 006B
ENCODING 107
SWIDTH 528 0
DWIDTH 11 0
BBX 8 15 2 0
BITMAP
C0
C0
C0
C0
C0
C7
CE
DC
D8
F8
F8
CC
CE
C7
C3
ENDCHAR
STARTCHAR 006C
ENCODING 108
SWIDTH 240 0
DWIDTH 5 0
BBX 2 15 2 0
BITMAP
C0
C0
C0
C0
C0
C0
C0
C0
C0
C0
C0
C0
C0
C0
C0
ENDCHAR
STARTCHAR 006D
ENCODING 109
SWIDTH 864 0
DWIDTH 18 0
BBX 14 10 2 0
BITMAP
DC78
E6DC
C30C
C30C
C30C
C30C
C30C
C30C
C30C
C30C
ENDCHAR
STARTCHAR 006E
ENCODING 110
SWIDTH 576 0
DWIDTH 12 0
BBX 8 10 2 0
BITMAP
DE
FF
C3
C3
C3
C3
C3
C3
C3
C3
ENDCHAR
STARTCHAR 006F
ENCODING 111
SWIDTH 576 0
DWIDTH 12 0
BBX 10 10 1 0
BITMAP
1E00
7F80
E180
C0C0
C0C0
C0C0
C0C0
E180
7F80
1E00
ENDCHAR
STARTCHAR 0070
ENCODING 112
SWIDTH 576 0
DWIDTH 12 0
BBX 9 14 2 -4
BITMAP
DE00
FF00
E180
C180
C180
C180
C180
E180
FF00
DE00
C000
C000
C000
C000
ENDCHAR
STARTCHAR 0071
ENCODING 113
SWIDTH 576 0
DWIDTH 12 0
BBX 10 14 1 -4
BITMAP
3EC0
7FC0
E1C0
C1C0
C0C0
C0C0
C1C0
E1C0
7FC0
3EC0
00C0
00C0
00C0
00C0
ENDCHAR
STARTCHAR 0072
ENCODING 114
SWIDTH 384 0
DWIDTH 8 0
BBX 5 10 2 0
BITMAP
D8
F8
E0
C0
C0
C0
C0
C0
C0
C0
ENDCHAR
STARTCHAR 0073
ENCODING 115
SWIDTH 432 0
DWIDTH 9 0
BBX 7 10 1 0
BITMAP
3C
7E
C6
C0
78
3E
06
C6
FE
3C
ENDCHAR
STARTCHAR 0074
ENCODING 116
SWIDTH 336 0
DWIDTH 7 0
BBX 6 13 0 0
BITMAP
30
30
30
FC
FC
30
30
30
30
30
30
1C
1C
ENDCHAR
STARTCHAR 0075
ENCODING 117
SWIDTH 576 0
DWIDTH 12 0
BBX 8 10 2 0
BITMAP
C3
C3
C3
C3
C3
C3
C3
C3
E7
7B
ENDCHAR
STARTCHAR 0076
ENCODING 118
SWIDTH 480 0
DWIDTH 10 0
BBX 10 10 0 0
BITMAP
E0C0
60C0
6180
3180
3300
3300
1B00
1E00
0E00
0C00
ENDCHAR
STARTCHAR 0077
ENCODING 119
SWIDTH 816 0
DWIDTH 17 0
BBX 16 10 0 0
BITMAP
E1C3
61C3
63C6
6366
3366
3664
363C
1E3C
1C38
1C18
ENDCHAR
STARTCHAR 0078
ENCODING 120
SWIDTH 480 0
DWIDTH 10 0
BBX 9 10 1 0
BITMAP
C380
E300
6600
3C00
1C00
3C00
3C00
6600
E300
C380
ENDCHAR
STARTCHAR 0079
ENCODING 121
SWIDTH 528 0
DWIDTH 11 0
BBX 10 14 0 -4
BITMAP
E0C0
60C0
71C0
3180
3980
1B00
1B00
0E00
0E00
0C00
0C00
1800
1800
3000
ENDCHAR
STARTCHAR 007A
ENCODING 122
SWIDTH 480 0
DWIDTH 10 0
BBX 8 10 1 0
BITMAP
FF
FF
06
0C
18
38
70
60
FF
FF
ENDCHAR
STARTCHAR 007B
ENCODING 123
SWIDTH 336 0
DWIDTH 7 0
BBX 6 20 1 -3
BITMAP
04
1C
10
30
30
30
30
30
30
E0
E0
30
30
30
30
30
30
30
1C
0C
ENDCHAR
STARTCHAR 007C
ENCODING 124
SWIDTH 240 0
DWIDTH 5 0
BBX 2 19 2 -3
BITMAP
C0
C0
C0
C0
C0
C0
C0
C0
C0
C0
C0
C0
C0
C0
C0
C0
C0
C0
C0
ENDCHAR
STARTCHAR 007D
ENCODING 125
SWIDTH 336 0
DWIDTH 7 0
BBX 6 20 0 -3
BITMAP
80
E0
30
30
30
30
30
30
18
1C
0C
18
30
30
30
30
30
30
F0
E0
ENDCHAR
STARTCHAR 007E
ENCODING 126
SWIDTH 576 0
DWIDTH 12 0
BBX 10 4 1 4
BITMAP
3000
FCC0
CFC0
0300
ENDCHAR
STARTCHAR 00A0
ENCODING 160
SWIDTH 240 0
DWIDTH 5 0
BBX 0 0 0 0
BITMAP
ENDCHAR
STARTCHAR 00A1
ENCODING 161
SWIDTH 288 0
DWIDTH 6 0
BBX 2 15 2 -5
BITMAP
C0
C0
C0
00
C0
C0
C0
C0
C0
C0
C0
C0
C0
C0
C0
ENDCHAR
STARTCHAR 00A2
ENCODING 162
SWIDTH 528 0
DWIDTH 11 0
BBX 9 14 1 0
BITMAP
0C00
0C00
3E00
7F00
6D80
CD00
CC00
CC00
CC00
6D80
7F00
1E00
0C00
0C00
ENDCHAR
STARTCHAR 00A3
ENCODING 163
SWIDTH 576 0
DWIDTH 12 0
BBX 11 14 1 0
BITMAP
1F00
3F80
31C0
60C0
6000
3000
FF00
FF00
1800
1800
3060
70E0
FFC0
FF80
ENDCHAR
STARTCHAR 00A4
ENCODING 164
SWIDTH 576 0
DWIDTH 12 0
BBX 10 10 1 0
BITMAP
4080
FEC0
7F80
6180
40C0
40C0
6180
7F80
DEC0
4080
ENDCHAR
STARTCHAR 00A5
ENCODING 165
SWIDTH 576 0
DWIDTH 12 0
BBX 10 14 1 0
BITMAP
C0C0
E1C0
6180
3380
3300
1E00
7FC0
0C00
0C00
7FC0
0FC0
0C00
0C00
0C00
ENDCHAR
STARTCHAR 00A6
ENCODING 166
SWIDTH 240 0
DWIDTH 5 0
BBX 2 19 2 -3
BITMAP
C0
C0
C0
C0
C0
C0
C0
C0
00
00
00
C0
C0
C0
C0
C0
C0
C0
C0
ENDCHAR
STARTCHAR 00A7
ENCODING 167
SWIDTH 576 0
DWIDTH 12 0
BBX 8 20 2 -5
BITMAP
3C
7E
C3
C3
C0
E0
78
7E
C7
C3
C3
73
3E
0E
07
43
C3
C3
7E
18
ENDCHAR
STARTCHAR 00A8
ENCODING 168
SWIDTH 384 0
DWIDTH 8 0
BBX 6 2 1 12
BITMAP
CC
CC
ENDCHAR
STARTCHAR 00A9
ENCODING 169
SWIDTH 816 0
DWIDTH 17 0
BBX 15 15 1 0
BITMAP
07C0
1FF0
3018
63CC
4EE6
CC66
C806
D806
C806
CC66
47C6
600C
3018
1FF0
07C0
ENDCHAR
STARTCHAR 00AA
ENCODING 170
SWIDTH 432 0
DWIDTH 9 0
BBX 6 7 1 7
BITMAP
38
6C
04
7C
C4
CC
7C
ENDCHAR
STARTCHAR 00AB
ENCODING 171
SWIDTH 480 0
DWIDTH 10 0
BBX 8 8 1 2
BITMAP
33
66
66
CC
CC
66
66
33
ENDCHAR
STARTCHAR 00AC
ENCODING 172
SWIDTH 576 0
DWIDTH 12 0
BBX 10 6 1 3
BITMAP
FFC0
FFC0
00C0
00C0
00C0
00C0
ENDCHAR
STARTCHAR 00AD
ENCODING 173
SWIDTH 384 0
DWIDTH 8 0
BBX 6 2 1 5
BITMAP
FC
FC
ENDCHAR
STARTCHAR 00AE
ENCODING 174
SWIDTH 816 0
DWIDTH 17 0
BBX 15 15 1 0
BITMAP
07C0
1FF0
3018
600C
47C4
C666
C666
C7C6
C786
C6C6
46C4
600C
3018
1FF0
07C0
ENDCHAR
STARTCHAR 00AF
ENCODING 175
SWIDTH 336 0
DWIDTH 7 0
BBX 5 2 1 12
BITMAP
F8
F8
ENDCHAR
STARTCHAR 00B0
ENCODING 176
SWIDTH 384 0
DWIDTH 8 0
BBX 6 7 1 7
BITMAP
78
FC
8C
8C
CC
F8
30
ENDCHAR
STARTCHAR 00B1
ENCODING 177
SWIDTH 576 0
DWIDTH 12 0
BBX 9 10 1 1
BITMAP
0C00
0C00
0C00
FF80
FF80
0C00
0C00
0000
FF80
FF80
ENDCHAR
STARTCHAR 00B2
ENCODING 178
SWIDTH 384 0
DWIDTH 8 0
BBX 6 8 1 7
BITMAP
78
4C
CC
0C
38
60
C0
FC
ENDCHAR
STARTCHAR 00B3
ENCODING 179
SWIDTH 432 0
DWIDTH 9 0
BBX 6 8 1 7
BITMAP
7C
0C
18
38
0C
44
EC
78
ENDCHAR
STARTCHAR 00B4
ENCODING 180
SWIDTH 288 0
DWIDTH 6 0
BBX 4 3 1 11
BITMAP
70
60
C0
ENDCHAR
STARTCHAR 00B5
ENCODING 181
SWIDTH 576 0
DWIDTH 12 0
BBX 8 14 2 -4
BITMAP
C3
C3
C3
C3
C3
C3
C3
C3
E7
FB
C0
C0
C0
C0
ENDCHAR
STARTCHAR 00B6
ENCODING 182
SWIDTH 624 0
DWIDTH 13 0
BBX 12 19 1 -4
BITMAP
3FF0
7FF0
FC80
FC80
FC80
FC80
7C80
3C80
0C80
0C80
0C80
0C80
0C80
0C80
0C80
0C80
0C80
0C80
0C80
ENDCHAR
STARTCHAR 00B7
ENCODING 183
SWIDTH 288 0
DWIDTH 6 0
BBX 3 3 1 4
BITMAP
60
E0
60
ENDCHAR
STARTCHAR 00B8
ENCODING 184
SWIDTH 288 0
DWIDTH 6 0
BBX 4 4 1 -4
BITMAP
60
70
10
F0
ENDCHAR
STARTCHAR 00B9
ENCODING 185
SWIDTH 288 0
DWIDTH 6 0
BBX 3 8 1 7
BITMAP
20
E0
20
20
20
20
20
20
ENDCHAR
STARTCHAR 00BA
ENCODING 186
SWIDTH 480 0
DWIDTH 10 0
BBX 8 7 1 7
BITMAP
3C
66
42
C3
C3
66
3C
ENDCHAR
STARTCHAR 00BB
ENCODING 187
SWIDTH 480 0
DWIDTH 10 0
BBX 8 8 1 2
BITMAP
CC
CC
66
33
33
66
CC
CC
ENDCHAR
STARTCHAR 00BC
ENCODING 188
SWIDTH 768 0
DWIDTH 16 0
BBX 14 14 1 0
BITMAP
3030
7060
F060
30C0
3180
3100
3318
3638
0C78
0CD8
1898
31FC
3018
6018
ENDCHAR
STARTCHAR 00BD
ENCODING 189
SWIDTH 768 0
DWIDTH 16 0
BBX 14 14 1 0
BITMAP
3030
7060
F060
30C0
3180
3100
3338
366C
0C44
0C0C
1818
3070
3060
607C
ENDCHAR
STARTCHAR 00BE
ENCODING 190
SWIDTH 864 0
DWIDTH 18 0
BBX 16 14 1 0
BITMAP
FC0C
0C18
1830
3830
0C60
44C0
CCCC
799C
0314
0334
0664
0C7F
0804
1804
ENDCHAR
STARTCHAR 00BF
ENCODING 191
SWIDTH 528 0
DWIDTH 11 0
BBX 10 15 0 -5
BITMAP
0C00
0E00
0400
0000
0C00
0C00
0C00
3800
7000
6100
C0C0
E180
6180
3F00
1E00
ENDCHAR
STARTCHAR 00C0
ENCODING 192
SWIDTH 720 0
DWIDTH 15 0
BBX 14 19 0 0
BITMAP
0C00
0600
0300
0000
0380
0780
0780
06C0
0CC0
0CE0
0C60
1860
1830
3FF0
3FF8
3018
6018
600C
E00C
ENDCHAR
STARTCHAR 00C1
ENCODING 193
SWIDTH 720 0
DWIDTH 15 0
BBX 14 19 0 0
BITMAP
00E0
01C0
0180
0000
0380
0780
0780
06C0
0CC0
0CE0
0C60
1860
1830
3FF0
3FF8
3018
6018
600C
E00C
ENDCHAR
STARTCHAR 00C2
ENCODING 194
SWIDTH 720 0
DWIDTH 15 0
BBX 14 19 0 0
BITMAP
0380
07C0
0CC0
0000
0380
0780
0780
06C0
0CC0
0CE0
0C60
1860
1830
3FF0
3FF8
3018
6018
600C
E00C
ENDCHAR
STARTCHAR 00C3
ENCODING 195
SWIDTH 720 0
DWIDTH 15 0
BBX 14 19 0 0
BITMAP
0660
0FC0
09C0
0000
0380
0780
0780
06C0
0CC0
0CE0
0C60
1860
1830
3FF0
3FF8
3018
6018
600C
E00C
ENDCHAR
STARTCHAR 00C4
ENCODING 196
SWIDTH 720 0
DWIDTH 15 0
BBX 14 19 0 0
BITMAP
1860
1860
1860
0000
0380
0780
0780
06C0
0CC0
0CE0
0C60
1860
1830
3FF0
3FF8
3018
6018
600C
E00C
ENDCHAR
STARTCHAR 00C5
ENCODING 197
SWIDTH 720 0
DWIDTH 15 0
BBX 14 18 0 0
BITMAP
0780
04C0
04C0
0780
0780
0780
06C0
0CC0
0CE0
0C60
1860
1830
3FF0
3FF8
3018
6018
600C
E00C
ENDCHAR
STARTCHAR 00C6
ENCODING 198
SWIDTH 1008 0
DWIDTH 21 0
BBX 20 15 0 0
BITMAP
003FF0
007FF0
00F800
00D800
019800
039800
031FE0
061FE0
0E1800
0FF800
1FF800
381800
301800
701FF0
E01FF0
ENDCHAR
STARTCHAR 00C7
ENCODING 199
SWIDTH 768 0
DWIDTH 16 0
BBX 14 19 1 -4
BITMAP
07C0
1FF0
3838
6018
E00C
C000
C000
C000
C000
C000
E00C
6018
3838
1FF0
0FC0
0300
0380
00C0
0780
ENDCHAR
STARTCHAR 00C8
ENCODING 200
SWIDTH 576 0
DWIDTH 12 0
BBX 9 19 2 0
BITMAP
3000
1800
1C00
0000
FF80
FF80
C000
C000
C000
C000
C000
FF00
FF00
C000
C000
C000
C000
FF80
FF80
ENDCHAR
STARTCHAR 00C9
ENCODING 201
SWIDTH 576 0
DWIDTH 12 0
BBX 9 19 2 0
BITMAP
0600
0C00
1800
0000
FF80
FF80
C000
C000
C000
C000
C000
FF00
FF00
C000
C000
C000
C000
FF80
FF80
ENDCHAR
STARTCHAR 00CA
ENCODING 202
SWIDTH 576 0
DWIDTH 12 0
BBX 9 19 2 0
BITMAP
1C00
3E00
6300
0000
FF80
FF80
C000
C000
C000
C000
C000
FF00
FF00
C000
C000
C000
C000
FF80
FF80
ENDCHAR
STARTCHAR 00CB
ENCODING 203
SWIDTH 576 0
DWIDTH 12 0
BBX 9 19 2 0
BITMAP
6300
6300
6300
0000
FF80
FF80
C000
C000
C000
C000
C000
FF00
FF00
C000
C000
C000
C000
FF80
FF80
ENDCHAR
STARTCHAR 00CC
ENCODING 204
SWIDTH 288 0
DWIDTH 6 0
BBX 4 19 0 0
BITMAP
C0
E0
70
00
30
30
30
30
30
30
30
30
30
30
30
30
30
30
30
ENDCHAR
STARTCHAR 00CD
ENCODING 205
SWIDTH 288 0
DWIDTH 6 0
BBX 4 19 2 0
BITMAP
30
60
C0
00
C0
C0
C0
C0
C0
C0
C0
C0
C0
C0
C0
C0
C0
C0
C0
ENDCHAR
STARTCHAR 00CE
ENCODING 206
SWIDTH 288 0
DWIDTH 6 0
BBX 6 19 0 0
BITMAP
78
78
CC
00
30
30
30
30
30
30
30
30
30
30
30
30
30
30
30
ENDCHAR
STARTCHAR 00CF
ENCODING 207
SWIDTH 288 0
DWIDTH 6 0
BBX 6 18 0 0
BITMAP
DC
C8
00
30
30
30
30
30
30
30
30
30
30
30
30
30
30
30
ENDCHAR
STARTCHAR 00D0
ENCODING 208
SWIDTH 720 0
DWIDTH 15 0
BBX 14 15 0 0
BITMAP
3FC0
3FF0
3038
3018
301C
300C
FE0C
FE0C
300C
300C
301C
3018
3038
3FF0
3FC0
ENDCHAR
STARTCHAR 00D1
ENCODING 209
SWIDTH 768 0
DWIDTH 16 0
BBX 12 19 2 0
BITMAP
1C80
1F80
1380
0000
E030
F030
F030
F830
D830
CC30
CE30
C630
C330
C3B0
C1B0
C0F0
C0F0
C070
C030
ENDCHAR
STARTCHAR 00D2
ENCODING 210
SWIDTH 816 0
DWIDTH 17 0
BBX 15 18 1 0
BITMAP
0E00
0300
0000
07C0
1FF0
3838
601C
E00C
C00E
C006
C006
C006
C00E
E00C
601C
3838
1FF0
07C0
ENDCHAR
STARTCHAR 00D3
ENCODING 211
SWIDTH 816 0
DWIDTH 17 0
BBX 15 18 1 0
BITMAP
00C0
0180
0000
07C0
1FF0
3838
601C
E00C
C00E
C006
C006
C006
C00E
E00C
601C
3838
1FF0
07C0
ENDCHAR
STARTCHAR 00D4
ENCODING 212
SWIDTH 816 0
DWIDTH 17 0
BBX 15 18 1 0
BITMAP
0780
0CC0
0000
07C0
1FF0
3838
601C
E00C
C00E
C006
C006
C006
C00E
E00C
601C
3838
1FF0
07C0
ENDCHAR
STARTCHAR 00D5
ENCODING 213
SWIDTH 816 0
DWIDTH 17 0
BBX 15 19 1 0
BITMAP
0660
0FE0
0DC0
0000
07C0
1FF0
3838
601C
E00C
C00E
C006
C006
C006
C00E
E00C
601C
3838
1FF0
07C0
ENDCHAR
STARTCHAR 00D6
ENCODING 214
SWIDTH 816 0
DWIDTH 17 0
BBX 15 18 1 0
BITMAP
1830
1830
0000
07C0
1FF0
3838
601C
E00C
C00E
C006
C006
C006
C00E
E00C
601C
3838
1FF0
07C0
ENDCHAR
STARTCHAR 00D7
ENCODING 215
SWIDTH 528 0
DWIDTH 11 0
BBX 9 10 1 1
BITMAP
8100
C180
6300
3600
1C00
1C00
3600
6300
C180
0080
ENDCHAR
STARTCHAR 00D8
ENCODING 216
SWIDTH 816 0
DWIDTH 17 0
BBX 15 17 1 -1
BITMAP
0008
07CC
1FF8
3838
607C
E06C
C0CE
C186
C386
C706
C60E
EC0C
781C
3838
7FF0
67C0
4000
ENDCHAR
STARTCHAR 00D9
ENCODING 217
SWIDTH 672 0
DWIDTH 14 0
BBX 10 19 2 0
BITMAP
3800
1800
0C00
0000
C0C0
C0C0
C0C0
C0C0
C0C0
C0C0
C0C0
C0C0
C0C0
C0C0
C0C0
C0C0
E1C0
7F80
3E00
ENDCHAR
STARTCHAR 00DA
ENCODING 218
SWIDTH 672 0
DWIDTH 14 0
BBX 10 19 2 0
BITMAP
0700
0600
0C00
0000
C0C0
C0C0
C0C0
C0C0
C0C0
C0C0
C0C0
C0C0
C0C0
C0C0
C0C0
C0C0
E1C0
7F80
3E00
ENDCHAR
STARTCHAR 00DB
ENCODING 219
SWIDTH 672 0
DWIDTH 14 0
BBX 10 19 2 0
BITMAP
1E00
1E00
3300
0000
C0C0
C0C0
C0C0
C0C0
C0C0
C0C0
C0C0
C0C0
C0C0
C0C0
C0C0
C0C0
E1C0
7F80
3E00
ENDCHAR
STARTCHAR 00DC
ENCODING 220
SWIDTH 672 0
DWIDTH 14 0
BBX 10 19 2 0
BITMAP
3300
7380
3300
0000
C0C0
C0C0
C0C0
C0C0
C0C0
C0C0
C0C0
C0C0
C0C0
C0C0
C0C0
C0C0
E1C0
7F80
3E00
ENDCHAR
STARTCHAR 00DD
ENCODING 221
SWIDTH 624 0
DWIDTH 13 0
BBX 11 19 1 0
BITMAP
0300
0600
0C00
0000
C060
E0E0
60C0
71C0
3180
1B00
1B00
0E00
0E00
0C00
0C00
0C00
0C00
0C00
0C00
ENDCHAR
STARTCHAR 00DE
ENCODING 222
SWIDTH 576 0
DWIDTH 12 0
BBX 10 15 2 0
BITMAP
C000
C000
C000
FE00
FF80
C180
C0C0
C0C0
C0C0
C180
FF80
FE00
C000
C000
C000
ENDCHAR
STARTCHAR 00DF
ENCODING 223
SWIDTH 576 0
DWIDTH 12 0
BBX 9 15 2 0
BITMAP
3E00
7F00
C300
C180
C300
C700
CE00
DC00
DC00
CF00
C780
C180
D180
DF80
CF00
ENDCHAR
STARTCHAR 00E0
ENCODING 224
SWIDTH 528 0
DWIDTH 11 0
BBX 9 14 1 0
BITMAP
3000
1800
1800
0000
3E00
7F00
E300
0180
1F80
7980
C380
C380
FF80
7980
ENDCHAR
STARTCHAR 00E1
ENCODING 225
SWIDTH 528 0
DWIDTH 11 0
BBX 9 14 1 0
BITMAP
0600
0E00
0C00
0000
3E00
7F00
E300
0180
1F80
7980
C380
C380
FF80
7980
ENDCHAR
STARTCHAR 00E2
ENCODING 226
SWIDTH 528 0
DWIDTH 11 0
BBX 9 14 1 0
BITMAP
1C00
3600
2200
0000
3E00
7F00
E300
0180
1F80
7980
C380
C380
FF80
7980
ENDCHAR
STARTCHAR 00E3
ENCODING 227
SWIDTH 528 0
DWIDTH 11 0
BBX 9 14 1 0
BITMAP
3B00
7F00
6E00
0000
3E00
7F00
E300
0180
1F80
7980
C380
C380
FF80
7980
ENDCHAR
STARTCHAR 00E4
ENCODING 228
SWIDTH 528 0
DWIDTH 11 0
BBX 9 14 1 0
BITMAP
2600
7700
2600
0000
3E00
7F00
E300
0180
1F80
7980
C380
C380
FF80
7980
ENDCHAR
STARTCHAR 00E5
ENCODING 229
SWIDTH 528 0
DWIDTH 11 0
BBX 9 15 1 0
BITMAP
1C00
3600
3600
1C00
0000
3E00
7F00
E300
0180
1F80
7980
C380
C380
FF80
7980
ENDCHAR
STARTCHAR 00E6
ENCODING 230
SWIDTH 864 0
DWIDTH 18 0
BBX 16 10 1 0
BITMAP
3E3C
7FFE
C1C3
0183
3FFF
79FF
C180
C3C3
FEFE
3C3C
ENDCHAR
STARTCHAR 00E7
ENCODING 231
SWIDTH 528 0
DWIDTH 11 0
BBX 9 14 1 -4
BITMAP
1E00
7F00
6180
C100
C000
C000
C000
E180
7380
3F00
0C00
0E00
0200
1E00
ENDCHAR
STARTCHAR 00E8
ENCODING 232
SWIDTH 528 0
DWIDTH 11 0
BBX 9 14 1 0
BITMAP
3000
1800
0C00
0000
1E00
7F00
E180
C180
FF80
FF80
C000
E180
7F00
1E00
ENDCHAR
STARTCHAR 00E9
ENCODING 233
SWIDTH 528 0
DWIDTH 11 0
BBX 9 14 1 0
BITMAP
0700
0600
0C00
0000
1E00
7F00
E180
C180
FF80
FF80
C000
E180
7F00
1E00
ENDCHAR
STARTCHAR 00EA
ENCODING 234
SWIDTH 528 0
DWIDTH 11 0
BBX 9 14 1 0
BITMAP
1C00
1E00
3300
0000
1E00
7F00
E180
C180
FF80
FF80
C000
E180
7F00
1E00
ENDCHAR
STARTCHAR 00EB
ENCODING 235
SWIDTH 528 0
DWIDTH 11 0
BBX 9 14 1 0
BITMAP
3300
3300
3300
0000
1E00
7F00
E180
C180
FF80
FF80
C000
E180
7F00
1E00
ENDCHAR
STARTCHAR 00EC
ENCODING 236
SWIDTH 240 0
DWIDTH 5 0
BBX 4 14 0 0
BITMAP
C0
60
60
00
30
30
30
30
30
30
30
30
30
30
ENDCHAR
STARTCHAR 00ED
ENCODING 237
SWIDTH 240 0
DWIDTH 5 0
BBX 4 14 2 0
BITMAP
70
60
C0
00
C0
C0
C0
C0
C0
C0
C0
C0
C0
C0
ENDCHAR
STARTCHAR 00EE
ENCODING 238
SWIDTH 240 0
DWIDTH 5 0
BBX 6 14 0 0
BITMAP
70
D8
CC
00
30
30
30
30
30
30
30
30
30
30
ENDCHAR
STARTCHAR 00EF
ENCODING 239
SWIDTH 240 0
DWIDTH 5 0
BBX 5 14 0 0
BITMAP
D8
D8
00
00
30
30
30
30
30
30
30
30
30
30
ENDCHAR
STARTCHAR 00F0
ENCODING 240
SWIDTH 576 0
DWIDTH 12 0
BBX 10 15 1 0
BITMAP
3000
3F80
0E00
3B00
0380
1D80
7FC0
61C0
C0C0
C0C0
C0C0
C0C0
E180
7F80
1E00
ENDCHAR
STARTCHAR 00F1
ENCODING 241
SWIDTH 576 0
DWIDTH 12 0
BBX 8 14 2 0
BITMAP
32
7E
4E
00
DE
FF
C3
C3
C3
C3
C3
C3
C3
C3
ENDCHAR
STARTCHAR 00F2
ENCODING 242
SWIDTH 576 0
DWIDTH 12 0
BBX 10 14 1 0
BITMAP
3000
1800
0C00
0000
1E00
7F80
E180
C0C0
C0C0
C0C0
C0C0
E180
7F80
1E00
ENDCHAR
STARTCHAR 00F3
ENCODING 243
SWIDTH 576 0
DWIDTH 12 0
BBX 10 14 1 0
BITMAP
0700
0600
0C00
0000
1E00
7F80
E180
C0C0
C0C0
C0C0
C0C0
E180
7F80
1E00
ENDCHAR
STARTCHAR 00F4
ENCODING 244
SWIDTH 576 0
DWIDTH 12 0
BBX 10 14 1 0
BITMAP
1C00
1E00
3300
0000
1E00
7F80
E180
C0C0
C0C0
C0C0
C0C0
E180
7F80
1E00
ENDCHAR
STARTCHAR 00F5
ENCODING 245
SWIDTH 576 0
DWIDTH 12 0
BBX 10 14 1 0
BITMAP
3900
3F00
2700
0000
1E00
7F80
E180
C0C0
C0C0
C0C0
C0C0
E180
7F80
1E00
ENDCHAR
STARTCHAR 00F6
ENCODING 246
SWIDTH 576 0
DWIDTH 12 0
BBX 10 14 1 0
BITMAP
3300
3300
3300
0000
1E00
7F80
E180
C0C0
C0C0
C0C0
C0C0
E180
7F80
1E00
ENDCHAR
STARTCHAR 00F7
ENCODING 247
SWIDTH 576 0
DWIDTH 12 0
BBX 10 10 1 1
BITMAP
0C00
0C00
0C00
0000
FFC0
FFC0
0000
0800
0C00
0C00
ENDCHAR
STARTCHAR 00F8
ENCODING 248
SWIDTH 576 0
DWIDTH 12 0
BBX 10 12 1 -1
BITMAP
0080
1EC0
7F80
E380
C6C0
CCC0
CCC0
D8C0
F180
7F80
DE00
4000
ENDCHAR
STARTCHAR 00F9
ENCODING 249
SWIDTH 576 0
DWIDTH 12 0
BBX 8 14 2 0
BITMAP
60
30
18
00
C3
C3
C3
C3
C3
C3
C3
C3
E7
7B
ENDCHAR
STARTCHAR 00FA
ENCODING 250
SWIDTH 576 0
DWIDTH 12 0
BBX 8 14 2 0
BITMAP
0C
18
18
00
C3
C3
C3
C3
C3
C3
C3
C3
E7
7B
ENDCHAR
STARTCHAR 00FB
ENCODING 251
SWIDTH 576 0
DWIDTH 12 0
BBX 8 14 2 0
BITMAP
38
3C
66
00
C3
C3
C3
C3
C3
C3
C3
C3
E7
7B
ENDCHAR
STARTCHAR 00FC
ENCODING 252
SWIDTH 576 0
DWIDTH 12 0
BBX 8 14 2 0
BITMAP
66
66
00
00
C3
C3
C3
C3
C3
C3
C3
C3
E7
7B
ENDCHAR
STARTCHAR 00FD
ENCODING 253
SWIDTH 528 0
DWIDTH 11 0
BBX 10 18 0 -4
BITMAP
0300
0600
0400
0000
E0C0
60C0
71C0
3180
3980
1B00
1B00
0E00
0E00
0C00
0C00
1800
1800
3000
ENDCHAR
STARTCHAR 00FE
ENCODING 254
SWIDTH 576 0
DWIDTH 12 0
BBX 9 19 2 -4
BITMAP
C000
C000
C000
C000
C000
DE00
FF00
E180
C180
C180
C180
C180
E180
FF00
DE00
C000
C000
C000
C000
ENDCHAR
STARTCHAR 00FF
ENCODING 255
SWIDTH 528 0
DWIDTH 11 0
BBX 10 18 0 -4
BITMAP
3B00
3B00
0000
0000
E0C0
60C0
71C0
3180
3980
1B00
1B00
0E00
0E00
0C00
0C00
1800
1800
3000
ENDCHAR
STARTCHAR 0131
ENCODING 305
SWIDTH 240 0
DWIDTH 5 0
BBX 2 10 2 0
BITMAP
C0
C0
C0
C0
C0
C0
C0
C0
C0
C0
ENDCHAR
STARTCHAR 0141
ENCODING 321
SWIDTH 576 0
DWIDTH 12 0
BBX 11 15 0 0
BITMAP
3000
3000
3000
3000
3000
3200
3E00
7800
F000
B000
3000
3000
3000
3FE0
3FE0
ENDCHAR
STARTCHAR 0142
ENCODING 322
SWIDTH 288 0
DWIDTH 6 0
BBX 6 15 0 0
BITMAP
30
30
30
30
30
30
3C
3C
F0
F0
30
30
30
30
30
ENDCHAR
STARTCHAR 0152
ENCODING 338
SWIDTH 1152 0
DWIDTH 24 0
BBX 22 15 1 0
BITMAP
07C7FC
1FF7FC
303E00
600E00
E00E00
C00600
C007F8
C007F8
C00600
C00E00
600E00
601E00
303E00
1FF7FC
07C7FC
ENDCHAR
STARTCHAR 0153
ENCODING 339
SWIDTH 960 0
DWIDTH 20 0
BBX 18 10 1 0
BITMAP
1E1E00
7FFF80
E1E180
C0C0C0
C0FFC0
C0FFC0
C0C000
E1E180
7FFF80
1E1E00
ENDCHAR
STARTCHAR 0160
ENCODING 352
SWIDTH 576 0
DWIDTH 12 0
BBX 10 18 1 0
BITMAP
3300
0E00
0000
1F00
3F80
61C0
60C0
C000
6000
7C00
3F80
07C0
00C0
C0C0
C0C0
E0C0
7F80
1F00
ENDCHAR
STARTCHAR 0161
ENCODING 353
SWIDTH 432 0
DWIDTH 9 0
BBX 7 14 1 0
BITMAP
66
7C
38
00
3C
7E
C6
C0
78
3E
06
C6
FE
3C
ENDCHAR
STARTCHAR 0178
ENCODING 376
SWIDTH 624 0
DWIDTH 13 0
BBX 11 19 1 0
BITMAP
3180
3180
3180
0000
C060
E0E0
60C0
71C0
3180
1B00
1B00
0E00
0E00
0C00
0C00
0C00
0C00
0C00
0C00
ENDCHAR
STARTCHAR 017D
ENCODING 381
SWIDTH 624 0
DWIDTH 13 0
BBX 11 19 1 0
BITMAP
3980
1F00
0E00
0000
FFE0
FFE0
00E0
01C0
0180
0300
0700
0E00
1C00
1800
3000
7000
E000
FFE0
FFE0
ENDCHAR
STARTCHAR 017E
ENCODING 382
SWIDTH 480 0
DWIDTH 10 0
BBX 8 14 1 0
BITMAP
66
3C
38
00
FF
FF
06
0C
18
38
70
60
FF
FF
ENDCHAR
STARTCHAR 0192
ENCODING 402
SWIDTH 480 0
DWIDTH 10 0
BBX 11 18 -1 -3
BITMAP
00E0
03E0
0300
0300
0300
1FC0
1FC0
0600
0600
0600
0C00
0C00
0C00
0C00
0C00
1800
F800
F000
ENDCHAR
STARTCHAR 02C6
ENCODING 710
SWIDTH 384 0
DWIDTH 8 0
BBX 6 3 1 11
BITMAP
30
78
CC
ENDCHAR
STARTCHAR 02C7
ENCODING 711
SWIDTH 384 0
DWIDTH 8 0
BBX 6 3 1 11
BITMAP
CC
78
78
ENDCHAR
STARTCHAR 02C9
ENCODING 713
SWIDTH 336 0
DWIDTH 7 0
BBX 5 2 1 12
BITMAP
F8
F8
ENDCHAR
STARTCHAR 02D8
ENCODING 728
SWIDTH 384 0
DWIDTH 8 0
BBX 6 3 1 11
BITMAP
8C
F8
30
ENDCHAR
STARTCHAR 02D9
ENCODING 729
SWIDTH 192 0
DWIDTH 4 0
BBX 2 2 1 12
BITMAP
C0
C0
ENDCHAR
STARTCHAR 02DA
ENCODING 730
SWIDTH 288 0
DWIDTH 6 0
BBX 4 5 1 11
BITMAP
60
90
90
90
60
ENDCHAR
STARTCHAR 02DB
ENCODING 731
SWIDTH 240 0
DWIDTH 5 0
BBX 3 4 1 -4
BITMAP
60
C0
80
E0
ENDCHAR
STARTCHAR 02DC
ENCODING 732
SWIDTH 384 0
DWIDTH 8 0
BBX 6 3 1 11
BITMAP
E4
FC
98
ENDCHAR
STARTCHAR 02DD
ENCODING 733
SWIDTH 384 0
DWIDTH 8 0
BBX 6 3 1 11
BITMAP
6C
D8
90
ENDCHAR
STARTCHAR 0394
ENCODING 916
SWIDTH 672 0
DWIDTH 14 0
BBX 14 15 0 0
BITMAP
0300
0780
0780
0D80
0CC0
0CC0
18C0
1860
1860
3030
3030
6030
6018
7FF8
FFFC
ENDCHAR
STARTCHAR 03A9
ENCODING 937
SWIDTH 816 0
DWIDTH 17 0
BBX 15 15 1 0
BITMAP
0FC0
1FF0
3838
601C
E00C
C00C
C006
C006
C00C
E00C
601C
3838
1CF0
FCFE
FCFE
ENDCHAR
STARTCHAR 03BC
ENCODING 956
SWIDTH 576 0
DWIDTH 12 0
BBX 8 14 2 -4
BITMAP
C3
C3
C3
C3
C3
C3
C3
C3
E7
FB
C0
C0
C0
C0
ENDCHAR
STARTCHAR 03C0
ENCODING 960
SWIDTH 624 0
DWIDTH 13 0
BBX 11 10 1 0
BITMAP
FFE0
FFE0
3180
3180
3180
3180
3180
3180
31E0
30E0
ENDCHAR
STARTCHAR 2007
ENCODING 8199
SWIDTH 624 0
DWIDTH 13 0
BBX 0 0 0 0
BITMAP
ENDCHAR
STARTCHAR 2008
ENCODING 8200
SWIDTH 288 0
DWIDTH 6 0
BBX 0 0 0 0
BITMAP
ENDCHAR
STARTCHAR 200B
ENCODING 8203
SWIDTH 0 0
DWIDTH 0 0
BBX 0 0 0 0
BITMAP
ENDCHAR
STARTCHAR 2013
ENCODING 8211
SWIDTH 624 0
DWIDTH 13 0
BBX 11 2 1 5
BITMAP
FFE0
FFE0
ENDCHAR
STARTCHAR 2014
ENCODING 8212
SWIDTH 1104 0
DWIDTH 23 0
BBX 19 2 2 5
BITMAP
FFFFE0
FFFFE0
ENDCHAR
STARTCHAR 2018
ENCODING 8216
SWIDTH 240 0
DWIDTH 5 0
BBX 3 5 1 10
BITMAP
60
C0
80
E0
C0
ENDCHAR
STARTCHAR 2019
ENCODING 8217
SWIDTH 240 0
DWIDTH 5 0
BBX 3 6 1 9
BITMAP
C0
E0
E0
60
40
80
ENDCHAR
STARTCHAR 201A
ENCODING 8218
SWIDTH 240 0
DWIDTH 5 0
BBX 3 6 1 -3
BITMAP
C0
E0
E0
60
40
80
ENDCHAR
STARTCHAR 201C
ENCODING 8220
SWIDTH 384 0
DWIDTH 8 0
BBX 6 5 1 10
BITMAP
64
C8
98
FC
CC
ENDCHAR
STARTCHAR 201D
ENCODING 8221
SWIDTH 384 0
DWIDTH 8 0
BBX 6 5 1 10
BITMAP
CC
FC
64
44
98
ENDCHAR
STARTCHAR 201E
ENCODING 8222
SWIDTH 384 0
DWIDTH 8 0
BBX 6 5 1 -3
BITMAP
CC
EC
64
4C
98
ENDCHAR
STARTCHAR 2020
ENCODING 8224
SWIDTH 384 0
DWIDTH 8 0
BBX 7 12 1 3
BITMAP
30
30
30
FE
FE
30
30
30
30
30
30
30
ENDCHAR
STARTCHAR 2021
ENCODING 8225
SWIDTH 432 0
DWIDTH 9 0
BBX 7 15 1 0
BITMAP
10
10
10
FE
FE
10
10
10
10
10
FE
FE
10
10
10
ENDCHAR
STARTCHAR 2022
ENCODING 8226
SWIDTH 576 0
DWIDTH 12 0
BBX 9 8 1 2
BITMAP
1E00
7F00
7F80
FF80
FF80
7F80
7F00
1E00
ENDCHAR
STARTCHAR 2026
ENCODING 8230
SWIDTH 912 0
DWIDTH 19 0
BBX 16 3 2 0
BITMAP
C186
E387
C186
ENDCHAR
STARTCHAR 2030
ENCODING 8240
SWIDTH 1056 0
DWIDTH 22 0
BBX 20 14 1 0
BITMAP
381800
7C3000
C63000
C66000
C6C000
7CC000
318000
0318C0
037FE0
066730
0CC630
08C630
187FE0
3039C0
ENDCHAR
STARTCHAR 2039
ENCODING 8249
SWIDTH 288 0
DWIDTH 6 0
BBX 4 8 1 2
BITMAP
30
60
60
C0
C0
60
60
30
ENDCHAR
STARTCHAR 203A
ENCODING 8250
SWIDTH 288 0
DWIDTH 6 0
BBX 4 8 1 2
BITMAP
C0
C0
60
30
30
60
C0
C0
ENDCHAR
STARTCHAR 2042
ENCODING 8258
SWIDTH 816 0
DWIDTH 17 0
BBX 15 15 1 0
BITMAP
0100
0100
0FE0
0380
03C0
0640
0000
0000
3018
3018
FC7E
FC7E
381C
6834
4824
ENDCHAR
STARTCHAR 2044
ENCODING 8260
SWIDTH 576 0
DWIDTH 12 0
BBX 11 14 0 0
BITMAP
0060
0060
00C0
0180
0100
0300
0600
0400
0C00
1800
3000
3000
6000
C000
ENDCHAR
STARTCHAR 2051
ENCODING 8273
SWIDTH 432 0
DWIDTH 9 0
BBX 7 15 1 0
BITMAP
10
10
FE
38
38
6C
00
00
10
10
D6
7C
38
6C
44
ENDCHAR
STARTCHAR 2070
ENCODING 8304
SWIDTH 432 0
DWIDTH 9 0
BBX 7 8 1 7
BITMAP
38
6C
C4
C6
C6
C4
6C
38
ENDCHAR
STARTCHAR 2074
ENCODING 8308
SWIDTH 432 0
DWIDTH 9 0
BBX 7 8 1 7
BITMAP
0C
1C
3C
6C
CC
FE
0C
0C
ENDCHAR
STARTCHAR 2075
ENCODING 8309
SWIDTH 384 0
DWIDTH 8 0
BBX 6 8 1 7
BITMAP
7C
60
40
7C
0C
44
CC
78
ENDCHAR
STARTCHAR 2076
ENCODING 8310
SWIDTH 432 0
DWIDTH 9 0
BBX 6 8 1 7
BITMAP
3C
64
40
FC
C4
C4
6C
38
ENDCHAR
STARTCHAR 2077
ENCODING 8311
SWIDTH 432 0
DWIDTH 9 0
BBX 6 8 1 7
BITMAP
FC
0C
18
18
30
30
20
20
ENDCHAR
STARTCHAR 2078
ENCODING 8312
SWIDTH 432 0
DWIDTH 9 0
BBX 6 8 1 7
BITMAP
78
4C
4C
78
4C
C4
CC
78
ENDCHAR
STARTCHAR 2079
ENCODING 8313
SWIDTH 432 0
DWIDTH 9 0
BBX 6 8 1 7
BITMAP
78
6C
C4
CC
7C
04
1C
70
ENDCHAR
STARTCHAR 2080
ENCODING 8320
SWIDTH 432 0
DWIDTH 9 0
BBX 7 7 1 -1
BITMAP
7C
44
C6
C6
C6
44
7C
ENDCHAR
STARTCHAR 2081
ENCODING 8321
SWIDTH 288 0
DWIDTH 6 0
BBX 3 7 1 -1
BITMAP
20
E0
20
20
20
20
20
ENDCHAR
STARTCHAR 2082
ENCODING 8322
SWIDTH 384 0
DWIDTH 8 0
BBX 6 7 1 -1
BITMAP
78
CC
CC
18
70
60
FC
ENDCHAR
STARTCHAR 2083
ENCODING 8323
SWIDTH 432 0
DWIDTH 9 0
BBX 6 7 1 -1
BITMAP
7C
0C
18
3C
04
C4
7C
ENDCHAR
STARTCHAR 2084
ENCODING 8324
SWIDTH 432 0
DWIDTH 9 0
BBX 7 7 1 -1
BITMAP
0C
1C
3C
6C
CC
FE
0C
ENDCHAR
STARTCHAR 2085
ENCODING 8325
SWIDTH 384 0
DWIDTH 8 0
BBX 6 7 1 -1
BITMAP
7C
60
40
7C
0C
CC
78
ENDCHAR
STARTCHAR 2086
ENCODING 8326
SWIDTH 432 0
DWIDTH 9 0
BBX 6 7 1 -1
BITMAP
3C
60
40
FC
C4
C4
7C
ENDCHAR
STARTCHAR 2087
ENCODING 8327
SWIDTH 432 0
DWIDTH 9 0
BBX 6 7 1 -1
BITMAP
FC
0C
18
10
30
30
20
ENDCHAR
STARTCHAR 2088
ENCODING 8328
SWIDTH 432 0
DWIDTH 9 0
BBX 6 7 1 -1
BITMAP
78
4C
4C
78
CC
C4
7C
ENDCHAR
STARTCHAR 2089
ENCODING 8329
SWIDTH 432 0
DWIDTH 9 0
BBX 6 7 1 -1
BITMAP
78
CC
C4
CC
74
0C
78
ENDCHAR
STARTCHAR 20AC
ENCODING 8364
SWIDTH 672 0
DWIDTH 14 0
BBX 13 14 1 0
BITMAP
03E0
0FF0
1C10
1800
FFC0
FFC0
3000
3000
FF80
FF00
1800
1C10
0FF8
03E0
ENDCHAR
STARTCHAR 2113
ENCODING 8467
SWIDTH 384 0
DWIDTH 8 0
BBX 7 14 1 0
BITMAP
3C
3C
66
66
66
6C
7C
78
F0
E0
60
60
3C
3C
ENDCHAR
STARTCHAR 2122
ENCODING 8482
SWIDTH 864 0
DWIDTH 18 0
BBX 16 8 1 7
BITMAP
FD83
31C7
31C7
31EF
31EB
31BB
31BB
3193
ENDCHAR
STARTCHAR 2126
ENCODING 8486
SWIDTH 816 0
DWIDTH 17 0
BBX 15 15 1 0
BITMAP
0FC0
1FF0
3838
601C
E00C
C00C
C006
C006
C00C
E00C
601C
3838
1CF0
FCFE
FCFE
ENDCHAR
STARTCHAR 2160
ENCODING 8544
SWIDTH 528 0
DWIDTH 11 0
BBX 8 14 1 0
BITMAP
FF
FF
18
18
18
18
18
18
18
18
18
18
FF
FF
ENDCHAR
STARTCHAR 2161
ENCODING 8545
SWIDTH 768 0
DWIDTH 16 0
BBX 14 14 1 0
BITMAP
FFFC
FFFC
1860
1860
1860
1860
1860
1860
1860
1860
1860
1860
FFFC
FFFC
ENDCHAR
STARTCHAR 2162
ENCODING 8546
SWIDTH 1056 0
DWIDTH 22 0
BBX 20 14 1 0
BITMAP
FFFFF0
FFFFF0
186180
186180
186180
186180
186180
186180
186180
186180
186180
186180
FFFFF0
FFFFF0
ENDCHAR
STARTCHAR 2163
ENCODING 8547
SWIDTH 1008 0
DWIDTH 21 0
BBX 19 14 1 0
BITMAP
FFFFE0
FFFFE0
198300
198300
198300
18C600
18C600
18C600
186C00
186C00
186C00
183800
FFFFE0
FFFFE0
ENDCHAR
STARTCHAR 2164
ENCODING 8548
SWIDTH 816 0
DWIDTH 17 0
BBX 15 14 1 0
BITMAP
FFFE
FFFE
1830
1830
1860
0C60
0C60
0CC0
06C0
06C0
0680
0380
FFFC
FFFC
ENDCHAR
STARTCHAR 2165
ENCODING 8549
SWIDTH 1008 0
DWIDTH 21 0
BBX 19 14 1 0
BITMAP
FFFFE0
FFFFE0
183300
183300
183300
0C6300
0C6300
0C6300
06C300
06C300
06C300
038300
FFFFE0
FFFFE0
ENDCHAR
STARTCHAR 2166
ENCODING 8550
SWIDTH 1296 0
DWIDTH 27 0
BBX 25 14 1 0
BITMAP
FFFFFF80
FFFFFF80
18330C00
18330C00
18630C00
0C630C00
0C630C00
0C630C00
06C30C00
06C30C00
06C30C00
03830C00
FFFFFF80
FFFFFF80
ENDCHAR
STARTCHAR 2167
ENCODING 8551
SWIDTH 1536 0
DWIDTH 32 0
BBX 30 14 1 0
BITMAP
FFFFFFFC
FFFFFFFC
18330C60
18330C60
18630C60
0C630C60
0C630C60
0CC30C60
06C30C60
06C30C60
06830C60
03830C60
FFFFFFFC
FFFFFFFC
ENDCHAR
STARTCHAR 2168
ENCODING 8552
SWIDTH 960 0
DWIDTH 20 0
BBX 18 14 1 0
BITMAP
FFFFC0
FFFFC0
198700
18C600
18EC00
187C00
183800
183800
187800
186C00
18CE00
198600
FFFFC0
FFFFC0
ENDCHAR
STARTCHAR 2169
ENCODING 8553
SWIDTH 768 0
DWIDTH 16 0
BBX 14 14 1 0
BITMAP
FFFC
FFFC
1860
1CE0
0CC0
0780
0780
0300
0780
0DC0
0CC0
1860
FFFC
FFFC
ENDCHAR
STARTCHAR 216C
ENCODING 8556
SWIDTH 672 0
DWIDTH 14 0
BBX 11 14 1 0
BITMAP
FF00
FF00
1800
1800
1800
1800
1800
1800
1860
1860
1860
1860
FFE0
FFE0
ENDCHAR
STARTCHAR 216D
ENCODING 8557
SWIDTH 720 0
DWIDTH 15 0
BBX 13 14 1 0
BITMAP
0FD8
1FF8
3038
6018
6018
C000
C000
C000
C000
6018
6038
3078
1FF8
0F98
ENDCHAR
STARTCHAR 216E
ENCODING 8558
SWIDTH 720 0
DWIDTH 15 0
BBX 13 14 1 0
BITMAP
FF80
FFE0
1870
1830
1818
1818
1818
1818
1818
1818
1830
1870
FFE0
FF80
ENDCHAR
STARTCHAR 216F
ENCODING 8559
SWIDTH 1056 0
DWIDTH 22 0
BBX 20 14 1 0
BITMAP
FC03F0
FC03F0
1E0780
1E0780
1E0780
1B0D80
1B0D80
198980
199980
199980
18F180
18F180
FE67F0
FE67F0
ENDCHAR
STARTCHAR 2190
ENCODING 8592
SWIDTH 1008 0
DWIDTH 21 0
BBX 20 8 0 2
BITMAP
080000
180000
380000
7FFFF0
FFFFF0
380000
180000
080000
ENDCHAR
STARTCHAR 2191
ENCODING 8593
SWIDTH 432 0
DWIDTH 9 0
BBX 8 20 1 -3
BITMAP
10
18
3C
7E
FF
18
18
18
18
18
18
18
18
18
18
18
18
18
18
18
ENDCHAR
STARTCHAR 2192
ENCODING 8594
SWIDTH 1008 0
DWIDTH 21 0
BBX 19 8 1 2
BITMAP
000200
000300
000380
FFFFE0
FFFFE0
0003C0
000300
000200
ENDCHAR
STARTCHAR 2193
ENCODING 8595
SWIDTH 432 0
DWIDTH 9 0
BBX 8 19 0 -3
BITMAP
18
18
18
18
18
18
18
18
18
18
18
18
18
18
FF
7E
3E
1C
08
ENDCHAR
STARTCHAR 2196
ENCODING 8598
SWIDTH 864 0
DWIDTH 18 0
BBX 15 15 1 0
BITMAP
FC00
F800
F000
F800
DC00
8E00
0700
0380
01C0
00E0
0070
0038
001C
000E
0004
ENDCHAR
STARTCHAR 2197
ENCODING 8599
SWIDTH 768 0
DWIDTH 16 0
BBX 15 15 -1 0
BITMAP
007E
003E
001E
003E
0076
00E2
01C0
0380
0700
0E00
1C00
3800
7000
E000
4000
ENDCHAR
STARTCHAR 2198
ENCODING 8600
SWIDTH 864 0
DWIDTH 18 0
BBX 15 15 1 0
BITMAP
4000
E000
7000
3800
1C00
0E00
0700
0380
01C0
00E2
0076
003E
001E
001E
003E
ENDCHAR
STARTCHAR 2199
ENCODING 8601
SWIDTH 768 0
DWIDTH 16 0
BBX 15 15 1 0
BITMAP
0004
000E
001C
0038
0070
00E0
01C0
0380
0700
8E00
DC00
F800
F000
F800
FC00
ENDCHAR
STARTCHAR 21A9
ENCODING 8617
SWIDTH 816 0
DWIDTH 17 0
BBX 17 12 0 2
BITMAP
00FC00
00FF00
000300
000180
080180
180180
380300
FFFE00
7FFC00
380000
180000
080000
ENDCHAR
STARTCHAR 21B0
ENCODING 8624
SWIDTH 768 0
DWIDTH 16 0
BBX 13 15 1 0
BITMAP
0800
1800
3800
FFF8
7FF8
3808
1808
0808
0008
0008
0008
0008
0008
0008
0008
ENDCHAR
STARTCHAR 21B1
ENCODING 8625
SWIDTH 720 0
DWIDTH 15 0
BBX 14 15 1 0
BITMAP
0040
0060
0070
FFFC
FFF8
8070
8060
8040
8000
8000
8000
8000
8000
8000
8000
ENDCHAR
STARTCHAR 21B2
ENCODING 8626
SWIDTH 768 0
DWIDTH 16 0
BBX 14 15 0 0
BITMAP
000C
000C
000C
000C
000C
000C
000C
000C
100C
300C
7FFC
FFFC
7000
1000
1000
ENDCHAR
STARTCHAR 21B3
ENCODING 8627
SWIDTH 864 0
DWIDTH 18 0
BBX 14 15 2 0
BITMAP
8000
8000
8000
8000
8000
8000
8000
8040
8060
8070
FFF8
FFFC
0070
0060
0040
ENDCHAR
STARTCHAR 21B4
ENCODING 8628
SWIDTH 816 0
DWIDTH 17 0
BBX 15 15 1 0
BITMAP
FFF0
FFF0
0030
0030
0030
0030
0030
0030
0030
0030
00FE
00FC
0078
0038
0010
ENDCHAR
STARTCHAR 21C6
ENCODING 8646
SWIDTH 1104 0
DWIDTH 23 0
BBX 19 15 2 0
BITMAP
100000
300000
700000
FFFFE0
FFFFE0
700000
300000
000000
000180
0001C0
FFFFE0
FFFFE0
0001C0
000180
000100
ENDCHAR
STARTCHAR 2202
ENCODING 8706
SWIDTH 624 0
DWIDTH 13 0
BBX 11 15 1 0
BITMAP
7E00
7F80
0180
00C0
00C0
1E60
3FE0
61E0
C060
C060
C0C0
C0C0
E1C0
7F80
1E00
ENDCHAR
STARTCHAR 2206
ENCODING 8710
SWIDTH 672 0
DWIDTH 14 0
BBX 14 15 0 0
BITMAP
0300
0780
0780
0D80
0CC0
0CC0
18C0
1860
1860
3030
3030
6030
6018
7FF8
FFFC
ENDCHAR
STARTCHAR 220F
ENCODING 8719
SWIDTH 672 0
DWIDTH 14 0
BBX 10 15 2 0
BITMAP
FFC0
FFC0
C0C0
C0C0
C0C0
C0C0
C0C0
C0C0
C0C0
C0C0
C0C0
C0C0
C0C0
C0C0
C0C0
ENDCHAR
STARTCHAR 2211
ENCODING 8721
SWIDTH 576 0
DWIDTH 12 0
BBX 10 15 1 0
BITMAP
FFC0
FFC0
6000
3000
1800
0C00
0600
0300
0600
0C00
1800
3000
6000
FFC0
FFC0
ENDCHAR
STARTCHAR 2212
ENCODING 8722
SWIDTH 528 0
DWIDTH 11 0
BBX 9 2 1 5
BITMAP
FF80
FF80
ENDCHAR
STARTCHAR 2215
ENCODING 8725
SWIDTH 384 0
DWIDTH 8 0
BBX 8 14 0 0
BITMAP
03
03
06
06
0C
0C
18
18
10
30
30
60
60
C0
ENDCHAR
STARTCHAR 2219
ENCODING 8729
SWIDTH 288 0
DWIDTH 6 0
BBX 3 3 1 4
BITMAP
60
E0
60
ENDCHAR
STARTCHAR 221A
ENCODING 8730
SWIDTH 672 0
DWIDTH 14 0
BBX 14 18 1 0
BITMAP
007C
007C
0060
00E0
00C0
00C0
0180
C180
C180
6300
6300
6300
3600
3600
3E00
1C00
1C00
1C00
ENDCHAR
STARTCHAR 221E
ENCODING 8734
SWIDTH 816 0
DWIDTH 17 0
BBX 15 8 1 2
BITMAP
3830
7CFC
C7CC
C386
C386
C7CC
7CFC
1030
ENDCHAR
STARTCHAR 222B
ENCODING 8747
SWIDTH 288 0
DWIDTH 6 0
BBX 6 19 0 -4
BITMAP
0C
1C
30
30
30
30
30
30
30
30
30
30
30
30
30
30
30
F0
E0
ENDCHAR
STARTCHAR 2248
ENCODING 8776
SWIDTH 576 0
DWIDTH 12 0
BBX 10 8 1 2
BITMAP
7000
FC40
8FC0
0300
0000
7C00
FFC0
0700
ENDCHAR
STARTCHAR 2260
ENCODING 8800
SWIDTH 576 0
DWIDTH 12 0
BBX 10 10 1 1
BITMAP
0180
0180
FFC0
FFC0
0600
0C00
FFC0
FFC0
3000
6000
ENDCHAR
STARTCHAR 2264
ENCODING 8804
SWIDTH 528 0
DWIDTH 11 0
BBX 9 10 1 1
BITMAP
0180
0780
3E00
F000
F000
3E00
0780
0080
FF80
FF80
ENDCHAR
STARTCHAR 2265
ENCODING 8805
SWIDTH 528 0
DWIDTH 11 0
BBX 9 10 1 1
BITMAP
C000
F800
1E00
0380
0780
3E00
F000
8000
FF80
FF80
ENDCHAR
STARTCHAR 22C5
ENCODING 8901
SWIDTH 288 0
DWIDTH 6 0
BBX 3 3 1 4
BITMAP
60
E0
60
ENDCHAR
STARTCHAR 24C5
ENCODING 9413
SWIDTH 816 0
DWIDTH 17 0
BBX 15 15 1 0
BITMAP
07C0
1FF0
3018
600C
47C6
C666
C666
C7C6
C606
C606
4604
600C
3018
1FF0
07C0
ENDCHAR
STARTCHAR 25A0
ENCODING 9632
SWIDTH 912 0
DWIDTH 19 0
BBX 15 15 2 0
BITMAP
FFFE
FFFE
FFFE
FFFE
FFFE
FFFE
FFFE
FFFE
FFFE
FFFE
FFFE
FFFE
FFFE
FFFE
FFFE
ENDCHAR
STARTCHAR 25A1
ENCODING 9633
SWIDTH 912 0
DWIDTH 19 0
BBX 15 15 2 0
BITMAP
FFFE
FFFE
C006
C006
C006
C006
C006
C006
C006
C006
C006
C006
C006
FFFE
FFFE
ENDCHAR
STARTCHAR 25B2
ENCODING 9650
SWIDTH 816 0
DWIDTH 17 0
BBX 17 15 0 0
BITMAP
008000
00C000
01C000
01E000
03E000
03F000
07F000
0FF800
0FFC00
1FFC00
1FFE00
3FFE00
7FFF00
7FFF80
FFFF80
ENDCHAR
STARTCHAR 25B3
ENCODING 9651
SWIDTH 816 0
DWIDTH 17 0
BBX 17 15 0 0
BITMAP
008000
00C000
01C000
01E000
036000
023000
061000
0C1800
0C0C00
180C00
180600
300600
600300
7FFF80
FFFF80
ENDCHAR
STARTCHAR 25CA
ENCODING 9674
SWIDTH 576 0
DWIDTH 12 0
BBX 10 15 1 0
BITMAP
0C00
1C00
1E00
3700
7300
6180
C180
C0C0
C180
6180
7300
3700
1E00
1C00
0C00
ENDCHAR
STARTCHAR 25CB
ENCODING 9675
SWIDTH 816 0
DWIDTH 17 0
BBX 15 15 1 0
BITMAP
07C0
1FF0
3818
600C
6006
C006
C002
C002
C002
C006
4006
600C
3018
1FF0
07C0
ENDCHAR
STARTCHAR 25CF
ENCODING 9679
SWIDTH 816 0
DWIDTH 17 0
BBX 15 15 1 0
BITMAP
07C0
1FF0
3FF8
7FFC
7FFE
FFFE
FFFE
FFFE
FFFE
FFFE
7FFE
7FFC
3FF8
1FF0
07C0
ENDCHAR
STARTCHAR 262E
ENCODING 9774
SWIDTH 816 0
DWIDTH 17 0
BBX 15 15 1 0
BITMAP
07C0
1FF0
3118
610C
4106
C106
C106
C386
CFC6
DD66
793E
711C
3118
1FF0
07C0
ENDCHAR
STARTCHAR 2713
ENCODING 10003
SWIDTH 960 0
DWIDTH 20 0
BBX 18 15 1 0
BITMAP
000040
0000C0
000180
000300
000600
000E00
001C00
003800
C07000
E0E000
71C000
3B8000
1F0000
0E0000
040000
ENDCHAR
STARTCHAR 2715
ENCODING 10005
SWIDTH 768 0
DWIDTH 16 0
BBX 14 15 1 0
BITMAP
8008
C01C
6018
3030
1860
0CC0
0780
0300
0780
0CC0
1860
3030
6018
C00C
8008
ENDCHAR
STARTCHAR 2780
ENCODING 10112
SWIDTH 816 0
DWIDTH 17 0
BBX 15 15 1 0
BITMAP
07C0
1FF0
3018
600C
4186
C786
C186
C186
C186
C186
4184
600C
3018
1FF0
07C0
ENDCHAR
STARTCHAR 2781
ENCODING 10113
SWIDTH 816 0
DWIDTH 17 0
BBX 15 15 1 0
BITMAP
07C0
1FF0
3018
600C
47C4
C4C6
C4C6
C186
C306
C606
47C6
600C
3018
1FF0
07C0
ENDCHAR
STARTCHAR 2782
ENCODING 10114
SWIDTH 816 0
DWIDTH 17 0
BBX 15 15 1 0
BITMAP
07C0
1FF0
3018
600C
47C6
C0C6
C306
C1C6
C046
CC46
47C6
600C
3018
1FF0
07C0
ENDCHAR
STARTCHAR 2783
ENCODING 10115
SWIDTH 816 0
DWIDTH 17 0
BBX 15 15 1 0
BITMAP
07C0
1FF0
3018
600C
C186
C386
C686
CC86
CFE6
C086
4084
600C
3018
1FF0
07C0
ENDCHAR
STARTCHAR 2784
ENCODING 10116
SWIDTH 816 0
DWIDTH 17 0
BBX 15 15 1 0
BITMAP
07C0
1FF0
3018
600C
47C6
C606
C786
C4C6
C046
CCC6
47C4
600C
3018
1FF0
07C0
ENDCHAR
STARTCHAR 2785
ENCODING 10117
SWIDTH 816 0
DWIDTH 17 0
BBX 15 15 1 0
BITMAP
07C0
1FF0
3018
600C
43C6
C606
CF86
CEC6
CC46
CCC6
47C6
600C
3018
1FF0
07C0
ENDCHAR
STARTCHAR 2786
ENCODING 10118
SWIDTH 816 0
DWIDTH 17 0
BBX 15 15 1 0
BITMAP
07C0
1FF0
3018
600C
4FE4
C0E6
C086
C186
C306
C306
4306
600C
3018
1FF0
07C0
ENDCHAR
STARTCHAR 2787
ENCODING 10119
SWIDTH 816 0
DWIDTH 17 0
BBX 15 15 1 0
BITMAP
07C0
1FF0
3018
600C
47C6
C446
C6C6
C386
C446
C446
47C6
600C
3018
1FF0
07C0
ENDCHAR
STARTCHAR 2788
ENCODING 10120
SWIDTH 816 0
DWIDTH 17 0
BBX 15 15 1 0
BITMAP
07C0
1FF0
3018
600C
47C4
C446
CC66
C6E6
C7C6
C0C6
4786
600C
3018
1FF0
07C0
ENDCHAR
STARTCHAR E000
ENCODING 57344
SWIDTH 816 0
DWIDTH 17 0
BBX 15 15 1 0
BITMAP
1FFE
1FFE
1000
1000
1000
1000
1000
1000
1000
1000
FE00
7E00
7C00
3800
1000
ENDCHAR
STARTCHAR E001
ENCODING 57345
SWIDTH 1104 0
DWIDTH 23 0
BBX 21 15 1 0
BITMAP
00F800
03FC00
060000
0C0000
1800C0
1801E0
1003F0
F007F8
7E00C0
3C00C0
180180
100180
000700
01FE00
00F800
ENDCHAR
STARTCHAR E002
ENCODING 57346
SWIDTH 960 0
DWIDTH 20 0
BBX 18 15 1 0
BITMAP
07C000
1FE000
380000
600200
600600
C00F00
C00F80
C01FC0
C00200
C00600
600600
600C00
381800
1FF000
07C000
ENDCHAR
STARTCHAR FB00
ENCODING 64256
SWIDTH 672 0
DWIDTH 14 0
BBX 13 15 0 0
BITMAP
0E38
1E78
3860
3060
3060
FFF8
FFF8
3060
3060
3060
3060
3060
3060
3060
3060
ENDCHAR
STARTCHAR FB01
ENCODING 64257
SWIDTH 624 0
DWIDTH 13 0
BBX 11 15 0 0
BITMAP
0E60
1E60
3860
3000
3000
FFE0
FFE0
3060
3060
3060
3060
3060
3060
3060
3060
ENDCHAR
STARTCHAR FB02
ENCODING 64258
SWIDTH 624 0
DWIDTH 13 0
BBX 11 15 0 0
BITMAP
0E60
1E60
3860
3060
3060
FFE0
FFE0
3060
3060
3060
3060
3060
3060
3060
3060
ENDCHAR
STARTCHAR FB03
ENCODING 64259
SWIDTH 912 0
DWIDTH 19 0
BBX 18 15 0 0
BITMAP
0E39C0
1E79C0
386080
306000
306000
FFFF80
FFFF80
306080
306080
306080
306080
306080
306080
306080
306080
ENDCHAR
STARTCHAR FB04
ENCODING 64260
SWIDTH 912 0
DWIDTH 19 0
BBX 17 15 0 0
BITMAP
0E3880
1E7880
386080
306080
306080
FFFF80
FFFF80
306080
306080
306080
306080
306080
306080
306080
306080
ENDCHAR
STARTCHAR FEFF
ENCODING 65279
SWIDTH 0 0
DWIDTH 0 0
BBX 0 0 0 0
BITMAP
ENDCHAR
ENDFONT
